<svg width="15" height="16" viewBox="0 0 15 16" fill="none" xmlns="http://www.w3.org/2000/svg">
<path d="M10.8984 6.33331L10.204 4.80553L8.67622 4.11108L10.204 3.41664L10.8984 1.88886L11.5929 3.41664L13.1207 4.11108L11.5929 4.80553L10.8984 6.33331ZM10.8984 14.1111L10.204 12.5833L8.67622 11.8889L10.204 11.1944L10.8984 9.66664L11.5929 11.1944L13.1207 11.8889L11.5929 12.5833L10.8984 14.1111ZM5.34288 12.4444L3.95399 9.38886L0.898438 7.99997L3.95399 6.61108L5.34288 3.55553L6.73177 6.61108L9.78733 7.99997L6.73177 9.38886L5.34288 12.4444ZM5.34288 9.74997L5.89844 8.55553L7.09288 7.99997L5.89844 7.44442L5.34288 6.24997L4.78733 7.44442L3.59288 7.99997L4.78733 8.55553L5.34288 9.74997Z" fill="#4B5563"/>
<path d="M10.8984 6.33331L10.204 4.80553L8.67622 4.11108L10.204 3.41664L10.8984 1.88886L11.5929 3.41664L13.1207 4.11108L11.5929 4.80553L10.8984 6.33331ZM10.8984 14.1111L10.204 12.5833L8.67622 11.8889L10.204 11.1944L10.8984 9.66664L11.5929 11.1944L13.1207 11.8889L11.5929 12.5833L10.8984 14.1111ZM5.34288 12.4444L3.95399 9.38886L0.898438 7.99997L3.95399 6.61108L5.34288 3.55553L6.73177 6.61108L9.78733 7.99997L6.73177 9.38886L5.34288 12.4444ZM5.34288 9.74997L5.89844 8.55553L7.09288 7.99997L5.89844 7.44442L5.34288 6.24997L4.78733 7.44442L3.59288 7.99997L4.78733 8.55553L5.34288 9.74997Z" fill="black" fill-opacity="0.2"/>
<path d="M10.8984 6.33331L10.204 4.80553L8.67622 4.11108L10.204 3.41664L10.8984 1.88886L11.5929 3.41664L13.1207 4.11108L11.5929 4.80553L10.8984 6.33331ZM10.8984 14.1111L10.204 12.5833L8.67622 11.8889L10.204 11.1944L10.8984 9.66664L11.5929 11.1944L13.1207 11.8889L11.5929 12.5833L10.8984 14.1111ZM5.34288 12.4444L3.95399 9.38886L0.898438 7.99997L3.95399 6.61108L5.34288 3.55553L6.73177 6.61108L9.78733 7.99997L6.73177 9.38886L5.34288 12.4444ZM5.34288 9.74997L5.89844 8.55553L7.09288 7.99997L5.89844 7.44442L5.34288 6.24997L4.78733 7.44442L3.59288 7.99997L4.78733 8.55553L5.34288 9.74997Z" fill="black" fill-opacity="0.2"/>
<path d="M10.8984 6.33331L10.204 4.80553L8.67622 4.11108L10.204 3.41664L10.8984 1.88886L11.5929 3.41664L13.1207 4.11108L11.5929 4.80553L10.8984 6.33331ZM10.8984 14.1111L10.204 12.5833L8.67622 11.8889L10.204 11.1944L10.8984 9.66664L11.5929 11.1944L13.1207 11.8889L11.5929 12.5833L10.8984 14.1111ZM5.34288 12.4444L3.95399 9.38886L0.898438 7.99997L3.95399 6.61108L5.34288 3.55553L6.73177 6.61108L9.78733 7.99997L6.73177 9.38886L5.34288 12.4444ZM5.34288 9.74997L5.89844 8.55553L7.09288 7.99997L5.89844 7.44442L5.34288 6.24997L4.78733 7.44442L3.59288 7.99997L4.78733 8.55553L5.34288 9.74997Z" fill="black" fill-opacity="0.2"/>
<path d="M10.8984 6.33331L10.204 4.80553L8.67622 4.11108L10.204 3.41664L10.8984 1.88886L11.5929 3.41664L13.1207 4.11108L11.5929 4.80553L10.8984 6.33331ZM10.8984 14.1111L10.204 12.5833L8.67622 11.8889L10.204 11.1944L10.8984 9.66664L11.5929 11.1944L13.1207 11.8889L11.5929 12.5833L10.8984 14.1111ZM5.34288 12.4444L3.95399 9.38886L0.898438 7.99997L3.95399 6.61108L5.34288 3.55553L6.73177 6.61108L9.78733 7.99997L6.73177 9.38886L5.34288 12.4444ZM5.34288 9.74997L5.89844 8.55553L7.09288 7.99997L5.89844 7.44442L5.34288 6.24997L4.78733 7.44442L3.59288 7.99997L4.78733 8.55553L5.34288 9.74997Z" fill="black" fill-opacity="0.2"/>
</svg>
